<svg id="Layer_1" data-name="Layer 1" xmlns="http://www.w3.org/2000/svg" viewBox="0 0 351.44 74.9"><defs><style>.cls-1{fill:#828282;}.cls-2{fill:#0777ad;}</style></defs><title>dot_logo_corp_1_rgb_CS3</title><path class="cls-1" d="M227.65,44.05h5.12c4.32,0,7.31,3,7.31,6.83v0c0,3.87-3,6.87-7.31,6.87h-5.12Zm2.42,2.2V55.6h2.71A4.48,4.48,0,0,0,237.54,51v0a4.51,4.51,0,0,0-4.77-4.67Z" transform="translate(-23.96 -23.96)"/><path class="cls-1" d="M243.14,44.05h2.41V57.8h-2.41Z" transform="translate(-23.96 -23.96)"/><path class="cls-1" d="M248.62,51v0a7,7,0,0,1,7.09-7.11A7.42,7.42,0,0,1,261,45.68l-1.53,1.83A5.39,5.39,0,0,0,255.61,46a4.65,4.65,0,0,0-4.46,4.85v0a4.59,4.59,0,0,0,4.67,4.91,5.61,5.61,0,0,0,3.32-1V52.22h-3.51v-2.1h5.85v5.77A8.76,8.76,0,0,1,255.75,58,6.82,6.82,0,0,1,248.62,51Z" transform="translate(-23.96 -23.96)"/><path class="cls-1" d="M264.76,44.05h2.42V57.8h-2.42Z" transform="translate(-23.96 -23.96)"/><path class="cls-1" d="M274.23,46.29h-4.36V44.05H281v2.24h-4.36V57.8h-2.43Z" transform="translate(-23.96 -23.96)"/><path class="cls-1" d="M286.68,44h2.24l6,13.84h-2.55L291,54.48h-6.5L283.1,57.8h-2.47Zm3.46,8.39-2.38-5.5-2.36,5.5Z" transform="translate(-23.96 -23.96)"/><path class="cls-1" d="M297.32,44.05h2.41V55.6H307v2.2h-9.64Z" transform="translate(-23.96 -23.96)"/><path class="cls-1" d="M227,70.95v0a7.19,7.19,0,0,1,14.38,0v0a7.19,7.19,0,0,1-14.38,0Zm11.84,0v0A4.71,4.71,0,0,0,234.21,66a4.64,4.64,0,0,0-4.63,4.85v0a4.69,4.69,0,0,0,4.67,4.87A4.63,4.63,0,0,0,238.88,70.95Z" transform="translate(-23.96 -23.96)"/><path class="cls-1" d="M244.34,64h5.42c3.22,0,5.22,1.83,5.22,4.6v0c0,3.08-2.47,4.69-5.5,4.69h-2.73v4.42h-2.42Zm5.22,7.15c1.83,0,3-1,3-2.46v0c0-1.61-1.16-2.46-3-2.46h-2.81v4.95Z" transform="translate(-23.96 -23.96)"/><path class="cls-1" d="M257.46,64h5.42c3.22,0,5.22,1.83,5.22,4.6v0c0,3.08-2.47,4.69-5.5,4.69h-2.73v4.42h-2.42Zm5.22,7.15c1.83,0,3-1,3-2.46v0c0-1.61-1.16-2.46-3-2.46h-2.81v4.95Z" transform="translate(-23.96 -23.96)"/><path class="cls-1" d="M270,70.95v0a7.19,7.19,0,0,1,14.38,0v0a7.19,7.19,0,0,1-14.38,0Zm11.84,0v0A4.71,4.71,0,0,0,277.13,66a4.64,4.64,0,0,0-4.63,4.85v0a4.69,4.69,0,0,0,4.67,4.87A4.63,4.63,0,0,0,281.81,70.95Z" transform="translate(-23.96 -23.96)"/><path class="cls-1" d="M287.27,64h6.13a5.54,5.54,0,0,1,4,1.37,4.16,4.16,0,0,1,1.14,3v0a4.13,4.13,0,0,1-3.26,4.16l3.71,5.2h-2.87L292.71,73h-3v4.79h-2.41Zm6,6.81c1.73,0,2.83-.9,2.83-2.3v0c0-1.47-1.06-2.28-2.85-2.28h-3.52v4.62Z" transform="translate(-23.96 -23.96)"/><path class="cls-1" d="M304.78,66.27h-4.36V64h11.16v2.24h-4.36V77.78h-2.43Z" transform="translate(-23.96 -23.96)"/><path class="cls-1" d="M313.92,71.95V64h2.41v7.82c0,2.55,1.32,3.91,3.48,3.91s3.46-1.28,3.46-3.81V64h2.42v7.8c0,4.1-2.32,6.17-5.91,6.17S313.92,75.94,313.92,71.95Z" transform="translate(-23.96 -23.96)"/><path class="cls-1" d="M329,64h2.24l7.36,9.5V64H341V77.78h-2L331.37,68v9.78H329Z" transform="translate(-23.96 -23.96)"/><path class="cls-1" d="M344.65,64h2.41V77.78h-2.41Z" transform="translate(-23.96 -23.96)"/><path class="cls-1" d="M354.11,66.27h-4.36V64h11.16v2.24h-4.36V77.78h-2.43Z" transform="translate(-23.96 -23.96)"/><path class="cls-1" d="M367.51,72.36,362,64h2.87l3.83,6.07L372.63,64h2.77l-5.46,8.27v5.48h-2.44Z" transform="translate(-23.96 -23.96)"/><path class="cls-1" d="M231,86.26h-4.36V84h11.15v2.24h-4.36V97.77H231Z" transform="translate(-23.96 -23.96)"/><path class="cls-1" d="M240.37,84h6.13a5.54,5.54,0,0,1,4,1.37,4.16,4.16,0,0,1,1.14,3v0a4.13,4.13,0,0,1-3.26,4.16l3.71,5.2h-2.87L245.81,93h-3v4.79h-2.42Zm6,6.81c1.73,0,2.83-.9,2.83-2.3v0c0-1.47-1.06-2.28-2.85-2.28h-3.52v4.61Z" transform="translate(-23.96 -23.96)"/><path class="cls-1" d="M254.35,91.93V84h2.41v7.82c0,2.55,1.32,3.91,3.48,3.91s3.46-1.28,3.46-3.81V84h2.42v7.8c0,4.1-2.32,6.17-5.91,6.17S254.35,95.92,254.35,91.93Z" transform="translate(-23.96 -23.96)"/><path class="cls-1" d="M268.51,95.76,270,94a6.37,6.37,0,0,0,4.34,1.79c1.49,0,2.44-.71,2.44-1.73v0c0-1-.55-1.51-3.1-2.1-2.93-.71-4.58-1.57-4.58-4.1v0c0-2.36,2-4,4.69-4a7.62,7.62,0,0,1,5,1.73l-1.3,1.83A6.24,6.24,0,0,0,273.72,86c-1.41,0-2.24.73-2.24,1.63v0c0,1.06.63,1.53,3.28,2.16,2.91.71,4.4,1.75,4.4,4v0c0,2.57-2,4.1-4.91,4.1A8.47,8.47,0,0,1,268.51,95.76Z" transform="translate(-23.96 -23.96)"/><path class="cls-1" d="M285.09,86.26h-4.36V84h11.15v2.24h-4.36V97.77h-2.43Z" transform="translate(-23.96 -23.96)"/><path class="cls-2" d="M116.2,43a27.94,27.94,0,1,0,27.94,27.94A27.94,27.94,0,0,0,116.2,43Zm0,43.89a16,16,0,1,1,16-16A16,16,0,0,1,116.2,86.88Zm97.86-11.65a8.3,8.3,0,1,1-8.3-8.3A8.3,8.3,0,0,1,214.06,75.24ZM66.79,44H51.37a27.41,27.41,0,0,0,0,54.81A20.13,20.13,0,0,0,66.79,92v5.79h12V24h-12Zm0,27.41A15.43,15.43,0,1,1,51.37,56H66.79ZM190.9,81.57l8.5,8.5q-.52.58-1.07,1.13a26.13,26.13,0,0,1-44.62-18.48V24h12V44h27.9V56h-27.9v16.7a14.15,14.15,0,0,0,25.2,8.84Z" transform="translate(-23.96 -23.96)"/></svg>